<svg width="50%" height="50%" viewBox="0 0 1280 1085" version="1.1" xmlns="http://www.w3.org/2000/svg" xmlns:xlink="http://www.w3.org/1999/xlink" xml:space="preserve" xmlns:serif="http://www.serif.com/" style="fill-rule:evenodd;clip-rule:evenodd;stroke-linecap:round;stroke-linejoin:round;stroke-miterlimit:1.5;">
  <g transform="matrix(0.0972298,0,0,-0.0947853,-0.709417,1085.47)">
      <g transform="matrix(1,2.96431e-20,2.96431e-20,1.00024,5,-0.00121027)">
          <path d="M5675,10836C5606,10820 5436,10758 5370,10725C5226,10651 5073,10509 4963,10345C4941,10312 4893,10236 4857,10175C4821,10115 4778,10045 4761,10021L4731,9976L4720,10006C4650,10197 4602,10280 4519,10353C4432,10430 3955,10657 3690,10747C3599,10778 3447,10789 3362,10770C3085,10710 2720,10326 2454,9815C2273,9467 2144,9032 2091,8590C2066,8382 2058,8196 2059,7788C2060,7548 2056,7349 2052,7346C2047,7343 1934,7321 1799,7296C1443,7230 1275,7175 1058,7052C590,6787 202,6251 65,5679C-46,5212 -9,4678 171,4152C354,3618 728,2939 1144,2383C1594,1782 2205,1298 3051,874C3655,572 4240,359 4777,246C4912,218 5603,100 5775,76C6159,22 6451,5 6985,5C7801,6 8237,52 8834,200C9459,356 9973,563 10580,903C10693,967 10814,1035 10850,1055C10984,1129 11088,1234 11308,1518C11630,1932 11870,2315 12048,2695C12189,2999 12465,3699 12550,3972C12664,4336 12732,4680 12777,5120C12792,5265 12795,5387 12795,5830C12794,6357 12787,6545 12754,6880C12727,7152 12670,7529 12614,7810C12562,8066 12375,8846 12319,9038C12220,9377 12107,9647 11955,9905C11845,10092 11660,10328 11601,10356C11528,10391 11222,10492 11120,10516C10966,10551 10612,10569 10522,10546C10366,10506 10221,10364 10110,10142L10059,10040L9988,10101C9832,10236 9588,10369 9320,10468C9137,10536 9077,10550 8977,10550C8819,10550 8610,10478 8437,10363C8134,10161 7837,9676 7700,9155C7618,8844 7581,8478 7600,8173C7630,7682 7719,7280 8036,6192C8110,5938 8176,5705 8182,5676C8198,5602 8179,5573 8070,5504C7972,5442 7890,5418 7798,5422L7735,5425L7689,5650C7554,6315 7475,6551 7232,7015C6978,7501 6812,8039 6709,8710C6687,8852 6673,9150 6688,9150C6692,9149 6729,9106 6770,9052C7047,8694 7148,8612 7248,8664C7297,8689 7312,8730 7318,8850L7323,8957L7382,8933C7461,8901 7535,8904 7562,8941C7606,8999 7611,9373 7571,9557C7499,9890 7342,10136 7078,10336C6830,10522 6549,10650 6101,10781C5871,10848 5780,10860 5675,10836ZM3620,10548C3672,10522 3744,10437 3784,10355C3816,10290 3844,10166 3859,10028C3891,9739 3846,9474 3719,9200L3675,9105L3669,9260C3665,9345 3655,9451 3646,9495C3602,9699 3509,9912 3373,10120C3262,10289 3248,10343 3295,10437C3338,10522 3415,10569 3515,10570C3559,10570 3588,10564 3620,10548ZM6000,10560C6148,10532 6250,10444 6368,10245C6425,10149 6469,10033 6492,9920C6510,9835 6511,9807 6504,9655C6490,9395 6495,9085 6514,8920C6531,8778 6609,8248 6630,8140C6675,7905 6757,7674 6970,7190C7187,6696 7285,6399 7480,5635C7519,5481 7569,5286 7591,5202C7612,5118 7630,5029 7630,5003C7630,4946 7611,4830 7601,4830C7597,4830 7518,4913 7425,5013C7245,5210 7178,5267 7137,5256C7123,5253 7110,5244 7107,5236C7104,5229 7121,5122 7145,4999C7169,4876 7194,4733 7200,4682C7216,4567 7208,4288 7185,4141C7166,4019 7115,3811 7101,3797C7089,3785 7091,3780 7055,3910C7041,3962 7002,4059 6970,4125C6887,4292 6748,4554 6731,4574C6723,4583 6702,4590 6681,4590C6636,4590 6610,4566 6579,4495C6557,4446 6557,4439 6564,4188C6567,4046 6569,3930 6567,3930C6557,3930 6304,4043 6247,4074C6209,4094 6169,4110 6159,4110C6101,4110 6051,4048 6065,3993C6078,3942 6212,3838 6330,3789C6402,3759 6649,3707 6722,3706C6812,3706 6822,3750 6760,3865C6713,3949 6703,3978 6689,4075C6679,4149 6687,4347 6701,4333C6717,4317 6830,4092 6864,4009C6909,3899 6936,3792 6955,3652C6972,3525 6980,3503 7016,3494C7056,3484 7087,3505 7127,3567C7191,3668 7305,3901 7337,4000C7395,4177 7401,4223 7407,4523L7412,4801L7462,4745C7521,4679 7573,4650 7632,4650C7717,4650 7760,4697 7786,4818C7810,4932 7805,5005 7765,5146C7759,5165 7764,5167 7873,5178C8008,5191 8068,5210 8191,5280C8240,5309 8283,5330 8285,5328C8287,5326 8303,5244 8321,5145C8350,4981 8353,4946 8354,4750C8355,4465 8329,4303 8227,3949C8164,3733 8132,3571 8151,3560C8182,3540 8210,3589 8325,3860C8446,4147 8535,4431 8597,4730C8631,4891 8634,4918 8634,5075C8634,5345 8630,5360 8314,6465C8195,6878 8085,7271 8070,7340C7963,7803 7903,8494 7945,8789C7985,9070 8102,9413 8241,9655C8387,9911 8615,10120 8905,10263C9095,10357 9103,10357 9213,10273C9369,10154 9520,9974 9599,9813C9686,9638 9706,9534 9725,9168C9767,8375 9827,7947 9964,7470C10095,7016 10211,6751 10520,6206C10597,6069 10715,5856 10782,5731C10920,5473 10997,5341 11111,5167C11351,4801 11513,4359 11600,3834C11616,3737 11632,3655 11634,3653C11648,3639 11669,3721 11679,3830C11706,4139 11703,4277 11665,4467C11581,4882 11313,5445 10877,6125C10712,6382 10590,6593 10590,6621C10590,6636 10604,6683 10621,6725C10732,7004 10726,7264 10585,8206C10561,8366 10539,8471 10515,8546C10496,8606 10480,8656 10480,8658C10480,8660 10489,8659 10500,8655C10531,8645 10597,8668 10636,8702C10682,8742 10737,8824 10890,9080C11045,9338 11085,9394 11170,9473C11273,9568 11363,9609 11572,9654C11586,9657 11619,9676 11644,9695C11670,9714 11694,9730 11698,9730C11709,9730 11864,9408 11923,9265C12161,8683 12282,8092 12342,7225C12360,6964 12360,5615 12342,5445C12335,5379 12323,5223 12315,5098C12281,4579 12190,4154 11984,3550C11805,3023 11615,2632 11299,2137C11082,1798 10730,1322 10679,1298C10660,1289 10526,1236 10381,1181C9193,725 8566,557 7790,483C7472,453 6509,463 6050,501C5335,560 4502,757 3795,1033C3377,1196 3121,1335 2708,1623C2251,1942 2000,2150 1680,2476C1445,2715 1268,2927 1073,3200C986,3321 808,3602 814,3607C817,3610 865,3590 922,3562C1132,3460 1307,3424 1549,3433C1775,3442 1951,3484 2220,3592C2534,3719 2741,3842 3130,4135C3248,4223 3459,4379 3599,4480C3963,4745 3997,4779 4020,4910C4026,4945 4051,5017 4075,5070C4099,5122 4151,5266 4191,5390C4230,5514 4266,5618 4270,5623C4273,5627 4328,5581 4392,5522C4526,5396 4629,5316 4761,5235C4865,5172 4880,5158 4880,5121C4880,5058 4724,4832 4581,4689C4403,4510 4259,4425 4033,4367C3961,4349 3943,4340 3923,4313L3898,4281L3932,4260C3961,4242 3975,4240 4040,4245C4298,4265 4499,4355 4738,4554C4953,4734 5049,4875 5242,5295C5403,5644 5427,5794 5375,6125C5339,6354 5295,6570 5131,7310C5040,7722 4975,8055 4956,8208C4902,8632 4914,9162 4985,9516C5103,10099 5438,10508 5840,10559C5933,10571 5941,10571 6000,10560ZM6551,10411C6953,10273 7321,9816 7391,9370C7396,9333 7400,9279 7398,9251L7395,9199L7300,9342C7095,9652 6928,9848 6745,9990C6701,10024 6658,10061 6649,10073C6633,10094 6480,10413 6480,10424C6480,10434 6494,10431 6551,10411ZM10741,10362C10765,10346 10791,10321 10799,10307C10818,10271 10822,10278 10581,9896L10380,9577L10324,9696C10293,9761 10265,9833 10263,9855C10257,9904 10293,10005 10352,10105C10402,10190 10546,10341 10603,10369C10659,10397 10688,10395 10741,10362ZM4212,10317C4322,10252 4410,10140 4454,10008C4537,9762 4458,9423 4254,9147C4203,9078 4081,8960 4060,8960C4050,8960 4050,9043 4059,9138C4065,9196 4082,9271 4100,9325C4211,9653 4201,10032 4073,10367C4066,10384 4149,10354 4212,10317ZM11431,10201C11486,10144 11520,10063 11520,9987C11520,9906 11497,9872 11410,9823C11254,9737 11163,9672 11058,9571C10895,9416 10816,9310 10567,8915C10540,8873 10517,8840 10515,8842C10513,8843 10506,8915 10500,9000L10488,9156L10630,9425C10819,9784 10924,9973 10973,10043C11041,10140 11159,10215 11285,10240C11368,10256 11381,10253 11431,10201ZM3138,9978C3254,9797 3340,9598 3374,9430C3388,9359 3397,9270 3420,8996C3430,8868 3440,8842 3491,8811C3556,8771 3701,8778 3770,8824L3804,8847L3890,8792C4028,8703 4016,8731 4023,8492C4032,8178 4071,7913 4160,7575C4228,7314 4269,7190 4355,6990C4501,6648 4670,6234 4670,6218C4670,6207 4650,6213 4587,6246C4483,6300 4434,6309 4400,6282C4379,6265 4375,6252 4372,6186C4370,6144 4365,6110 4361,6110C4358,6111 4328,6148 4295,6193C4262,6238 4177,6349 4106,6440C3764,6876 3654,6976 3348,7131C3160,7226 3007,7289 2867,7329C2725,7370 2681,7378 2554,7386L2442,7393L2436,7429C2419,7543 2408,7763 2413,7911C2444,8738 2707,9631 3037,10025C3057,10050 3075,10070 3076,10070C3077,10070 3105,10028 3138,9978ZM9908,9924C9971,9886 10128,9663 10209,9496C10288,9334 10370,9076 10370,8988C10370,8912 10331,8874 10285,8904C10261,8920 10258,8928 10226,9065C10189,9226 10092,9360 9963,9428C9928,9446 9895,9470 9889,9482C9880,9499 9847,9664 9805,9897C9801,9922 9803,9929 9817,9933C9854,9942 9883,9940 9908,9924ZM6917,9495C6981,9411 7043,9294 7075,9199C7099,9131 7127,8974 7118,8964C7113,8960 6914,9209 6752,9423C6673,9527 6670,9532 6670,9585C6670,9615 6675,9663 6681,9692L6693,9745L6779,9655C6826,9605 6889,9533 6917,9495ZM9985,9155C9998,9133 10012,9098 10015,9077C10024,9030 10011,8850 9999,8850C9986,8850 9939,8937 9930,8978C9926,8998 9919,9067 9915,9130L9908,9245L9935,9220C9950,9206 9972,9177 9985,9155ZM4683,8748C4693,8098 4715,7950 4960,6890C5139,6114 5132,6152 5138,5948C5140,5851 5139,5701 5135,5615L5128,5460L5016,5517C4927,5564 4890,5590 4830,5650C4764,5716 4745,5743 4677,5876C4635,5960 4600,6030 4600,6034C4600,6037 4628,6026 4663,6010C4746,5970 4798,5970 4842,6009C4869,6033 4875,6045 4874,6077C4872,6129 4724,6517 4590,6820C4500,7024 4475,7102 4375,7501C4250,8004 4215,8239 4222,8554L4225,8723L4255,8746C4272,8759 4310,8788 4340,8810C4414,8865 4540,8990 4603,9073C4632,9110 4660,9140 4666,9140C4674,9140 4679,9025 4683,8748ZM10221,8612C10272,8480 10324,8277 10346,8113C10370,7943 10370,7537 10347,7331C10338,7252 10329,7185 10326,7183C10320,7176 10252,7345 10194,7513C10094,7807 10020,8108 9960,8469C9944,8571 9930,8659 9930,8665C9930,8674 9955,8677 10009,8676C10083,8675 10090,8677 10126,8706C10152,8727 10167,8734 10172,8726C10177,8720 10198,8669 10221,8612ZM2743,7019C2849,6997 2973,6967 3020,6953C3118,6925 3304,6840 3293,6829C3289,6825 3213,6794 3126,6759C2964,6695 2784,6596 2723,6538C2671,6488 2647,6419 2652,6334C2663,6165 2754,6074 2967,6019C3135,5976 3324,5983 3524,6041C3579,6057 3680,6077 3747,6086C3860,6101 3871,6101 3904,6085C3945,6066 4072,5917 4116,5838C4142,5790 4145,5776 4144,5700C4143,5590 4107,5454 4025,5250C3991,5165 3944,5038 3920,4967C3891,4879 3870,4831 3851,4812C3836,4797 3662,4667 3464,4523C3267,4378 3016,4193 2907,4110C2561,3847 2303,3716 1981,3636C1642,3552 1355,3548 1130,3625C1049,3652 890,3729 851,3759L826,3778L870,3851C894,3892 953,3986 1000,4060C1225,4409 1302,4591 1356,4910C1394,5131 1397,5213 1371,5281C1356,5321 1334,5352 1299,5385C1193,5484 1084,5500 943,5436C899,5416 856,5400 847,5400C839,5400 796,5382 751,5359C604,5286 513,5175 374,4899L296,4745L282,4850C274,4908 267,5023 267,5105C265,5270 277,5335 329,5445C364,5518 527,5755 646,5905C760,6048 1034,6321 1132,6388C1336,6528 1512,6566 1714,6514C1781,6497 1820,6499 1830,6520C1834,6528 1843,6561 1848,6593C1864,6676 1896,6735 1970,6813C2094,6946 2245,7031 2408,7060C2475,7072 2527,7066 2743,7019ZM1947,6907C1859,6819 1801,6725 1779,6635C1773,6608 1766,6584 1765,6582C1764,6581 1739,6585 1709,6590C1517,6627 1416,6622 1278,6569C1042,6478 714,6182 448,5820C397,5750 360,5710 360,5723C360,5763 472,6007 536,6108C727,6408 955,6584 1405,6780C1609,6869 1954,6988 2012,6989C2021,6990 1995,6957 1947,6907ZM3475,6676C3503,6638 3596,6515 3682,6401L3840,6195L3777,6188C3719,6181 3678,6171 3423,6104C3369,6090 3285,6076 3235,6073L3145,6067L3202,6127C3270,6199 3296,6271 3285,6354C3270,6468 3216,6532 3084,6595L3006,6632L3096,6667C3216,6714 3347,6749 3390,6747C3421,6745 3431,6737 3475,6676ZM776,5182C777,4999 870,4880 1034,4849C1086,4840 1184,4852 1244,4876C1261,4882 1262,4879 1255,4829C1232,4650 1089,4347 877,4027L733,3808L656,3892C595,3957 568,3996 530,4075C461,4219 338,4549 338,4590C338,4629 411,4800 479,4920C548,5042 630,5149 703,5212C740,5244 772,5270 773,5270C774,5270 775,5231 776,5182Z" style="fill-rule:nonzero;"/>
      </g>
      <path d="M2240,5865C2204,5857 2141,5834 2100,5814C1966,5748 1820,5576 1820,5483C1820,5437 1840,5402 1892,5354C1952,5298 2013,5276 2091,5282C2143,5286 2175,5298 2307,5366C2392,5409 2479,5460 2500,5478C2556,5525 2573,5579 2568,5687C2563,5794 2544,5835 2492,5857C2440,5879 2318,5883 2240,5865Z" style="fill-rule:nonzero;"/>
      <path d="M2895,5728C2880,5714 2853,5665 2831,5608C2721,5333 2513,5153 2221,5081C2101,5051 2057,5047 1861,5049C1760,5049 1660,5045 1639,5040C1537,5012 1520,4883 1613,4833C1641,4818 1676,4815 1880,4815C2138,4815 2204,4823 2360,4872C2580,4942 2753,5062 2901,5247C3004,5377 3091,5583 3076,5664C3061,5741 2955,5779 2895,5728Z" style="fill-rule:nonzero;"/>
  </g>
  <g id="Holz" transform="matrix(3.01174,0,0,1.59085,-916.756,-358.44)">
      <path d="M349.266,234.799C471.76,210.536 686.757,236.91 718.927,267.915C737.298,285.621 731.229,361.31 702.806,375.346C694.897,379.252 677.269,379.228 657.467,380.366C627.523,382.088 592.606,383.97 578.796,386.315C572.803,387.333 562.633,395.035 559.207,399.279C554.201,405.478 552.713,411.617 547.695,411.213C517.441,408.781 422.369,420.934 378.834,428.869C316.876,440.16 263.044,301.972 349.266,234.799Z" style="fill:none;stroke:rgb(43,43,43);stroke-width:6.64px;"/>
      <path d="M349.266,234.799C411.195,209.332 438.924,284.727 432.393,340.615C430.454,357.203 428.682,376.98 412.602,396.394C404.788,405.828 391.135,417.49 378.834,428.869" style="fill:none;stroke:rgb(43,43,43);stroke-width:6.23px;"/>
      <path d="M423.561,381.282L523.469,411.885" style="fill:none;stroke:rgb(43,43,43);stroke-width:6.23px;"/>
      <path d="M436.726,338.912C488.404,330.366 512.829,331.417 581.7,357.732C615.016,369.527 670.756,354.658 718.702,349.057" style="fill:none;stroke:rgb(43,43,43);stroke-width:4.98px;"/>
      <path d="M551.953,376.092C541.226,372.173 530.735,379.461 520.783,386.486C516.339,391.992 543.47,394.048 554.172,384.668L551.953,376.092Z" style="fill:none;stroke:rgb(43,43,43);stroke-width:2.49px;"/>
      <path d="M577.714,305.683C573.919,294.883 618.991,294.702 633.239,301.801C639.765,305.053 656.575,302.23 646.345,305.951C646.345,305.951 582.986,320.687 577.714,305.683Z" style="fill:none;stroke:rgb(43,43,43);stroke-width:2.49px;"/>
      <path d="M374.739,396.584C328.289,396.118 307.194,323.43 363.481,266.031C415.215,250.423 438.155,392.948 374.739,396.584Z" style="fill:none;stroke:rgb(43,43,43);stroke-width:2.49px;"/>
      <path d="M371.437,371.545C358.652,379.703 342.969,292.616 375.701,289.682C410.386,286.574 406.29,349.305 371.437,371.545Z" style="fill:none;stroke:rgb(43,43,43);stroke-width:2.49px;"/>
      <path d="M436.726,309.132C465.981,306.374 480.496,303.175 503.854,308.839C523.997,313.254 564.002,337.531 580.001,331.684C617.814,317.865 726.675,327.417 726.675,327.417" style="fill:none;stroke:rgb(43,43,43);stroke-width:4.98px;"/>
      <path d="M473.515,225.313C466.707,236.871 445.006,246.675 415.539,254.767" style="fill:none;stroke:rgb(43,43,43);stroke-width:4.98px;"/>
      <path d="M519.813,359.582C465.995,340.571 440.434,389.258 509.438,367.234" style="fill:none;stroke:rgb(43,43,43);stroke-width:2.49px;"/>
      <path d="M429.193,271.644C451.719,269.106 474.168,253.062 499.689,254.767C517.293,255.944 555.086,237.191 561.824,231.684" style="fill:none;stroke:rgb(43,43,43);stroke-width:4.98px;"/>
      <path d="M433.327,292.188C477.767,290.93 522.636,293.536 556.302,278.033C568.377,272.472 583.701,271.644 583.701,271.644C583.701,271.644 644.395,271.629 663.813,274.873C681.977,277.906 676.464,292.269 701.067,298.731L726.675,303.57" style="fill:none;stroke:rgb(43,43,43);stroke-width:4.98px;"/>
  </g>
</svg>
